<svg xmlns="http://www.w3.org/2000/svg" width="109.363" height="125" viewBox="0 0 109.363 125">
  <g id="c-sub" fill="#FCE264">
    <path d="M62.5,125A62.517,62.517,0,0,1,38.172,4.912a62.42,62.42,0,0,1,61.662,7.459,62.981,62.981,0,0,1,9.53,8.774L62,62.5l47.363,41.355A62.7,62.7,0,0,1,88.635,119.29,61.985,61.985,0,0,1,62.5,125Z" stroke="none"/>
    <path d="M 62.49961853027344 125.0001220703125 C 54.06216812133789 125.0001220703125 45.87711715698242 123.3476715087891 38.17191696166992 120.0886154174805 C 30.72946739196777 116.9406661987305 24.04551696777344 112.4342193603516 18.30566596984863 106.6943206787109 C 12.56581687927246 100.9544219970703 8.059367179870605 94.27037048339844 4.911517143249512 86.82781982421875 C 1.652516961097717 79.12246704101562 1.691894613031764e-05 70.93727111816406 1.691894613031764e-05 62.49961853027344 C 1.691894613031764e-05 54.06221771240234 1.652516961097717 45.87717056274414 4.911517143249512 38.17186737060547 C 8.059367179870605 30.72946929931641 12.56581687927246 24.04551887512207 18.30566596984863 18.30566787719727 C 24.04551696777344 12.56581878662109 30.72946739196777 8.059369087219238 38.17191696166992 4.911518573760986 C 45.87716674804688 1.652518630027771 54.06221771240234 1.866455022536684e-05 62.49961853027344 1.866455022536684e-05 C 71.62176513671875 1.866455022536684e-05 80.41476440429688 1.921168684959412 88.63446807861328 5.710118770599365 C 92.57616424560547 7.527068614959717 96.34401702880859 9.768118858337402 99.83346557617188 12.37096881866455 C 103.2956161499023 14.95346832275391 106.5018692016602 17.90556907653809 109.3630676269531 21.14516830444336 L 62.00011825561523 62.49961853027344 L 109.3634185791016 103.8543701171875 C 106.5009689331055 107.0954666137695 103.2947158813477 110.0470657348633 99.83376312255859 112.6287155151367 C 96.34421539306641 115.2317199707031 92.57631683349609 117.4728164672852 88.63466644287109 119.2897720336914 C 80.41476440429688 123.0788650512695 71.62166595458984 125.0001220703125 62.49961853027344 125.0001220703125 Z" stroke="none" fill="#122d34"/>
  </g>
</svg>
