<svg xmlns="http://www.w3.org/2000/svg" width="36" height="36" viewBox="0 0 36 36">
  <g id="goal-icon" transform="translate(-3549 -2587)">
    <circle id="Ellipse_41" data-name="Ellipse 41" cx="18" cy="18" r="18" transform="translate(3549 2587)" fill="#122d34"/>
    <path id="star" d="M9.476.625l-2.2,4.654-4.916.749a1.139,1.139,0,0,0-.6,1.919l3.556,3.621-.841,5.115a1.087,1.087,0,0,0,1.561,1.185l4.4-2.415,4.4,2.415A1.087,1.087,0,0,0,16.4,16.683l-.841-5.115,3.556-3.621a1.139,1.139,0,0,0-.6-1.919L13.6,5.279,11.407.625a1.058,1.058,0,0,0-1.931,0Z" transform="translate(3556.559 2596.001)" fill="#fce264"/>
  </g>
</svg>
