<svg xmlns="http://www.w3.org/2000/svg" width="36" height="36" viewBox="0 0 36 36">
  <g id="location" transform="translate(-3642 -2683)">
    <circle id="Ellipse_48" data-name="Ellipse 48" cx="18" cy="18" r="18" transform="translate(3642 2683)" fill="#122d34"/>
    <path id="location-2" data-name="location" d="M14.5,3c-3.87,0-7,2.686-7,6.006,0,4.5,7,11.154,7,11.154s7-6.649,7-11.154C21.5,5.686,18.37,3,14.5,3Zm0,8.151A2.344,2.344,0,0,1,12,9.006a2.344,2.344,0,0,1,2.5-2.145A2.344,2.344,0,0,1,17,9.006,2.344,2.344,0,0,1,14.5,11.151Z" transform="translate(3645.5 2690.84)" fill="#fce264"/>
  </g>
</svg>
