<svg xmlns="http://www.w3.org/2000/svg" width="573.6" height="381.605" viewBox="0 0 573.6 381.605">
  <g id="logo" transform="translate(-193.858 -311.364)">
    <path id="Path_97" data-name="Path 97" d="M600.056,552.567c0,30,22.2,54,49.8,54,15.6,0,30.6-8.4,39.6-22.2l78,45c-26.4,39.6-70.2,63.6-117.6,63.6-78,0-141-63-141-140.4s63-140.4,141-140.4c47.4,0,91.2,24,117.6,63.6l-77.4,45.6c-9.6-14.4-24.6-22.8-40.2-22.8C622.256,498.566,600.056,522.566,600.056,552.567Z" fill="#122d34"/>
    <path id="Path_98" data-name="Path 98" d="M348.426,606.06l208.1-158.843,58.738,66.3-175.114,146.4Z" fill="#122d34"/>
    <path id="Path_94" data-name="Path 94" d="M326.46,537.566c15.571,3.115,45.653,5.573,60.167,18.865l69.884-52.942C433.2,478.65,393.219,461.322,340.86,452.366c-29.4-4.8-49.8-16.8-49.8-31.2,0-19.8,37.8-24,51.6-24,30,0,57,16.8,61.2,23.4l69-52.8c-25.8-37.2-84-56.4-129-56.4-66.6,0-139.2,42.6-139.2,114C204.659,480.566,247.859,520.167,326.46,537.566Z" fill="#122d34"/>
    <path id="Path_95" data-name="Path 95" d="M465.985,516.448l-71.4,54.5a26.31,26.31,0,0,1,.276,3.819c0,28.8-37.8,31.8-58.2,31.8-34.8,0-61.2-19.2-72-39l-70.8,49.2c29.4,52.2,85.2,75.6,143.4,75.6,78.6,0,144-43.2,144-120C481.262,550.774,476.083,532.212,465.985,516.448Z" fill="#122d34"/>
  </g>
</svg>
