<svg xmlns="http://www.w3.org/2000/svg" width="36" height="36" viewBox="0 0 36 36">
  <g id="part-icon-aft" transform="translate(-3730 -2683)">
    <circle id="Ellipse_50" data-name="Ellipse 50" cx="18" cy="18" r="18" transform="translate(3730 2683)" fill="#122d34"/>
    <g id="Group_85" data-name="Group 85" transform="translate(51)">
      <g id="Group_82" data-name="Group 82" transform="translate(87.905 94)">
        <g id="Group_71" data-name="Group 71" transform="translate(3605 2610.762)">
          <path id="Rectangle_102" data-name="Rectangle 102" d="M0,0H16a0,0,0,0,1,0,0V2.5a.5.5,0,0,1-.5.5H.5A.5.5,0,0,1,0,2.5V0A0,0,0,0,1,0,0Z" transform="translate(0.095 0.238)" fill="#fce264"/>
        </g>
        <g id="Group_72" data-name="Group 72" transform="translate(3605 2597)">
          <ellipse id="Ellipse_43" data-name="Ellipse 43" cx="8" cy="3" rx="8" ry="3" transform="translate(0.095 11)" fill="#fce264"/>
          <circle id="Ellipse_44" data-name="Ellipse 44" cx="4" cy="4" r="4" transform="translate(4.095)" fill="#fce264"/>
        </g>
      </g>
      <g id="Group_83" data-name="Group 83" transform="translate(80.905 98.125)">
        <g id="Group_72-2" data-name="Group 72" transform="translate(3605.095 2597)">
          <g id="Union_2" data-name="Union 2" transform="translate(3704 2704)" fill="#fce264">
            <path d="M -3692.500244140625 -2690.12548828125 L -3697.999755859375 -2690.12548828125 L -3703.5 -2690.12548828125 C -3704.3271484375 -2690.12548828125 -3705.000244140625 -2690.7978515625 -3705.000244140625 -2691.62451171875 L -3705.000244140625 -2693.125 C -3705.000244140625 -2695.197509765625 -3701.484375 -2696.125244140625 -3697.999755859375 -2696.125244140625 C -3694.515625 -2696.125244140625 -3691.000244140625 -2695.197509765625 -3691.000244140625 -2693.125 L -3691.000244140625 -2691.62451171875 C -3691.000244140625 -2690.7978515625 -3691.673095703125 -2690.12548828125 -3692.500244140625 -2690.12548828125 Z" stroke="none"/>
            <path d="M -3692.500244140625 -2691.12548828125 C -3692.22412109375 -2691.12548828125 -3692.000244140625 -2691.348388671875 -3692.000244140625 -2691.62451171875 L -3692.000244140625 -2693.125 C -3692.000244140625 -2694.229248046875 -3694.686767578125 -2695.125244140625 -3697.999755859375 -2695.125244140625 C -3701.313720703125 -2695.125244140625 -3704.000244140625 -2694.229248046875 -3704.000244140625 -2693.125 L -3704.000244140625 -2691.62451171875 C -3704.000244140625 -2691.348388671875 -3703.776123046875 -2691.12548828125 -3703.5 -2691.12548828125 L -3692.500244140625 -2691.12548828125 M -3692.500244140625 -2689.12548828125 L -3703.5 -2689.12548828125 C -3704.878662109375 -2689.12548828125 -3706.000244140625 -2690.24658203125 -3706.000244140625 -2691.62451171875 L -3706.000244140625 -2693.125 C -3706.000244140625 -2693.97265625 -3705.59423828125 -2695.530029296875 -3702.875244140625 -2696.4365234375 C -3701.543212890625 -2696.880615234375 -3699.811767578125 -2697.125244140625 -3697.999755859375 -2697.125244140625 C -3696.188232421875 -2697.125244140625 -3694.45703125 -2696.880615234375 -3693.125 -2696.4365234375 C -3690.40625 -2695.530029296875 -3690.000244140625 -2693.97265625 -3690.000244140625 -2693.125 L -3690.000244140625 -2691.62451171875 C -3690.000244140625 -2690.24658203125 -3691.121826171875 -2689.12548828125 -3692.500244140625 -2689.12548828125 Z" stroke="none" fill="#122d34"/>
          </g>
          <g id="Ellipse_44-2" data-name="Ellipse 44" transform="translate(3 -0.125)" fill="#fce264" stroke="#122d34" stroke-width="1">
            <circle cx="3" cy="3" r="3" stroke="none"/>
            <circle cx="3" cy="3" r="3.5" fill="none"/>
          </g>
        </g>
      </g>
    </g>
  </g>
</svg>
