<svg xmlns="http://www.w3.org/2000/svg" width="36" height="36" viewBox="0 0 36 36">
  <g id="res-bef" transform="translate(-3642 -2590)">
    <circle id="Ellipse_45" data-name="Ellipse 45" cx="18" cy="18" r="18" transform="translate(3642 2590)" fill="#122d34"/>
    <g id="Group_74" data-name="Group 74" transform="translate(-6.967 -2.333)">
      <g id="Group_91" data-name="Group 91">
        <rect id="Rectangle_103" data-name="Rectangle 103" width="13" height="3" rx="0.5" transform="translate(3660.967 2604.333)" fill="#fce264"/>
        <rect id="Rectangle_104" data-name="Rectangle 104" width="13" height="3" rx="0.5" transform="translate(3660.967 2609.333)" fill="#fce264"/>
        <rect id="Rectangle_105" data-name="Rectangle 105" width="13" height="3" rx="0.5" transform="translate(3660.967 2614.333)" fill="#fce264"/>
      </g>
      <g id="Group_92" data-name="Group 92">
        <path id="Path_84" data-name="Path 84" d="M.5,0h2c.276,0,.294.2.5.5L4.031.969v1.1L3,2.5c-.319.216-.224.5-.5.5H.5A.5.5,0,0,1,0,2.5V.5A.5.5,0,0,1,.5,0Z" transform="translate(3660.967 2604.333)" fill="#fce264"/>
        <path id="Path_87" data-name="Path 87" d="M.5,0h2c.276,0,.294.2.5.5L4.031.969v1.1L3,2.5c-.319.216-.224.5-.5.5H.5A.5.5,0,0,1,0,2.5V.5A.5.5,0,0,1,.5,0Z" transform="translate(3660.967 2609.333)" fill="#fce264"/>
        <path id="Path_88" data-name="Path 88" d="M.5,0h2c.276,0,.294.2.5.5L4.031.969v1.1L3,2.5c-.319.216-.224.5-.5.5H.5A.5.5,0,0,1,0,2.5V.5A.5.5,0,0,1,.5,0Z" transform="translate(3660.967 2614.333)" fill="#fce264"/>
      </g>
    </g>
  </g>
</svg>
