<svg xmlns="http://www.w3.org/2000/svg" width="36" height="36" viewBox="0 0 36 36">
  <g id="res-aft" transform="translate(-3642 -2590)">
    <circle id="Ellipse_45" data-name="Ellipse 45" cx="18" cy="18" r="18" transform="translate(3642 2590)" fill="#122d34"/>
    <g id="Group_74" data-name="Group 74" transform="translate(-4.967 -2.333)">
      <g id="Group_96" data-name="Group 96">
        <rect id="Rectangle_103" data-name="Rectangle 103" width="13" height="3" rx="0.5" transform="translate(3660.967 2604.333)" fill="#fce264"/>
        <rect id="Rectangle_104" data-name="Rectangle 104" width="13" height="3" rx="0.5" transform="translate(3660.967 2609.333)" fill="#fce264"/>
        <rect id="Rectangle_105" data-name="Rectangle 105" width="13" height="3" rx="0.5" transform="translate(3660.967 2614.333)" fill="#fce264"/>
      </g>
      <g id="Group_95" data-name="Group 95">
        <path id="Path_84" data-name="Path 84" d="M.5,0h2A.452.452,0,0,1,3,.5v2c0,.415-.224.5-.5.5H.5A.5.5,0,0,1,0,2.5V.5A.5.5,0,0,1,.5,0Z" transform="translate(3655.967 2604.333)" fill="#fce264"/>
        <path id="Path_87" data-name="Path 87" d="M.5,0h2A.452.452,0,0,1,3,.5v2c0,.415-.224.5-.5.5H.5A.5.5,0,0,1,0,2.5V.5A.5.5,0,0,1,.5,0Z" transform="translate(3655.967 2609.333)" fill="#fce264"/>
        <path id="Path_88" data-name="Path 88" d="M.5,0h2A.452.452,0,0,1,3,.5v2c0,.415-.224.5-.5.5H.5A.5.5,0,0,1,0,2.5V.5A.5.5,0,0,1,.5,0Z" transform="translate(3655.967 2614.333)" fill="#fce264"/>
      </g>
    </g>
  </g>
</svg>
