<svg width="264" height="264" viewBox="0 0 264 264" fill="none" xmlns="http://www.w3.org/2000/svg">
<g clip-path="url(#clip0_117_2469)">
<path d="M132 264C204.902 264 264 204.902 264 132C264 59.0984 204.902 0 132 0C59.0984 0 0 59.0984 0 132C0 204.902 59.0984 264 132 264Z" fill="#F79064"/>
<path d="M96.3999 202.467C109.655 202.467 120.4 191.722 120.4 178.467C120.4 165.212 109.655 154.467 96.3999 154.467C83.1451 154.467 72.3999 165.212 72.3999 178.467C72.3999 191.722 83.1451 202.467 96.3999 202.467Z" stroke="#0D0E13" stroke-width="8"/>
<path d="M168.4 202.467C181.655 202.467 192.4 191.722 192.4 178.467C192.4 165.212 181.655 154.467 168.4 154.467C155.145 154.467 144.4 165.212 144.4 178.467C144.4 191.722 155.145 202.467 168.4 202.467Z" stroke="#0D0E13" stroke-width="8"/>
<path d="M119.733 174.334C119.733 174.334 132.66 161.128 145.866 174.334" stroke="#0D0E13" stroke-width="8"/>
<path d="M42.2671 140.735H221.734C221.734 140.735 184.134 120.463 131.6 121.267C79.0661 122.071 42.2671 140.735 42.2671 140.735Z" fill="#0D0E13"/>
<path d="M83.334 105H182.534L168.134 57.5332L124.134 66.8662L98.2681 60.4663L83.334 105Z" fill="#0D0E13"/>
</g>
<defs>
<clipPath id="clip0_117_2469">
<rect width="264" height="264" fill="white"/>
</clipPath>
</defs>
</svg>
