<svg xmlns="http://www.w3.org/2000/svg" width="100" height="100" viewBox="0 0 100 100">
  <g id="hireme" transform="translate(-2988 -2675)">
    <path id="Subtraction_3" data-name="Subtraction 3" d="M46.081,102.157h0a49.64,49.64,0,0,1-14.862-3.524l1.143-1.982a47.659,47.659,0,0,0,13.72,3.2v2.306Zm10.018-.2h0V99.624A47.614,47.614,0,0,0,69.523,95.86l1.169,2.027c-.383.173-.755.336-1.108.485A49.656,49.656,0,0,1,56.1,101.958ZM22.357,93.937h0A50.728,50.728,0,0,1,10.775,83.245l1.9-1.1a48.319,48.319,0,0,0,10.8,9.847l-1.119,1.941Zm57.007-1.073h0L78.2,90.837a48.38,48.38,0,0,0,9.719-9.416l2,1.158A50.792,50.792,0,0,1,79.365,92.863ZM5.373,74.785h0c-.511-1.012-.994-2.056-1.437-3.1a49.834,49.834,0,0,1-3.451-12.5H2.539A47.58,47.58,0,0,0,7.2,73.726L5.374,74.785Zm89.8-.75h0L93.215,72.9a47.6,47.6,0,0,0,4.256-13.725h2.221a49.844,49.844,0,0,1-3.452,12.5c-.334.792-.693,1.584-1.066,2.355Zm4.915-24.888H97.921a47.657,47.657,0,0,0-3.15-14.464L96.638,33.6a49.845,49.845,0,0,1,3.45,15.542Zm-98,0h-2A49.829,49.829,0,0,1,3.856,32.824l1.728,1A47.627,47.627,0,0,0,2.09,49.146Zm88.084-23.39h0A48.282,48.282,0,0,0,79.788,14.391l1.055-1.831a50.744,50.744,0,0,1,11.17,12.134l-1.838,1.063Zm-79.826-.764h0L8.626,24A50.723,50.723,0,0,1,20.843,11.426l1,1.734A48.247,48.247,0,0,0,10.348,24.993ZM71.323,9.008h0A47.563,47.563,0,0,0,56.1,4.394V2.355A49.644,49.644,0,0,1,69.584,5.941c.935.4,1.867.825,2.773,1.275L71.324,9.007ZM30.518,8.145h0l-1-1.734c.372-.168.733-.325,1.073-.469a49.636,49.636,0,0,1,15.49-3.784V4.168A47.581,47.581,0,0,0,30.519,8.144Z" transform="translate(2987.912 2672.844)" fill="#122d34"/>
  </g>
</svg>
